<?xml version="1.0" encoding="UTF-8"?>
<!DOCTYPE svg PUBLIC "-//W3C//DTD SVG 1.1//EN" "http://www.w3.org/Graphics/SVG/1.1/DTD/svg11.dtd">
<!-- Creator: CorelDRAW 2020 (64-Bit) -->
<svg xmlns="http://www.w3.org/2000/svg" xml:space="preserve" width="57.948mm" height="8.2317mm" version="1.1" style="shape-rendering:geometricPrecision; text-rendering:geometricPrecision; image-rendering:optimizeQuality; fill-rule:evenodd; clip-rule:evenodd"
viewBox="0 0 1777.02 252.43"
 xmlns:xlink="http://www.w3.org/1999/xlink"
 xmlns:xodm="http://www.corel.com/coreldraw/odm/2003">
 <defs>
  <style type="text/css">
   <![CDATA[
    .fil2 {fill:black}
    .fil0 {fill:black;fill-rule:nonzero}
    .fil1 {fill:#00A8F3;fill-rule:nonzero}
   ]]>
  </style>
 </defs>
 <g id="Katman_x0020_1">
  <metadata id="CorelCorpID_0Corel-Layer"/>
  <g id="_757069600">
   <path class="fil0" d="M406.68 249.11c45.75,0 72.33,-16.15 96.55,-42.05l-32.97 -33.31c-18.5,17.16 -34.99,27.59 -61.9,27.59 -40.37,0 -68.29,-33.64 -68.29,-74.01l0 -0.67c0,-40.37 28.6,-73.34 68.29,-73.34 23.89,0 41.71,10.09 60.22,26.58l32.97 -38.01c-21.53,-21.53 -48.78,-36.33 -92.85,-36.33 -72.33,0 -122.79,54.84 -122.79,121.78l0 0.67c0,67.62 51.47,121.11 120.77,121.11zm107.79 -4.04l51.13 0 0 -66.61c0,-43.4 20.86,-63.58 54.84,-63.58l2.69 0 0 -53.49c-30.61,-1.35 -47.1,15.14 -57.53,39.7l0 -36.33 -51.13 0 0 180.32zm196.27 4.04c32.63,0 56.52,-12.45 73.67,-33.64l-29.27 -25.9c-14.47,13.12 -26.58,18.5 -43.74,18.5 -22.87,0 -39.02,-12.11 -44.07,-35.32l125.48 0c0.34,-5.04 0.67,-9.42 0.67,-13.46 0,-51.14 -27.59,-97.89 -87.8,-97.89 -52.48,0 -89.15,42.39 -89.15,93.86l0 0.67c0,55.17 40.03,93.18 94.2,93.18zm-44.07 -108.32c4.04,-23.21 17.49,-38.35 39.03,-38.35 21.53,0 34.99,15.48 38.01,38.35l-77.04 0zm191.22 107.65c25.23,0 42.05,-9.08 54.5,-22.88l0 19.51 49.45 0 0 -104.62c0,-24.22 -6.05,-44.07 -19.51,-57.53 -13.12,-13.12 -32.63,-20.18 -60.89,-20.18 -30.61,0 -50.13,6.05 -69.97,14.47l12.78 39.02c16.49,-6.39 29.94,-9.75 49.79,-9.75 25.57,0 38.69,11.44 38.69,32.97l0 3.03c-13.12,-4.37 -25.57,-7.4 -44.07,-7.4 -42.72,0 -72.67,18.5 -72.67,57.53l0 0.67c0,36 27.92,55.17 61.9,55.17zm15.48 -35.32c-16.49,0 -27.92,-8.07 -27.92,-21.86l0 -0.67c0,-16.15 13.46,-24.89 35.32,-24.89 12.45,0 23.55,2.69 32.63,6.73l0 9.08c0,18.84 -15.81,31.62 -40.03,31.62zm167 34.99c17.16,0 29.6,-4.04 40.37,-10.43l0 -41.04c-7.74,4.37 -16.15,6.39 -25.23,6.39 -11.1,0 -16.48,-5.72 -16.48,-17.49l0 -77.04 42.39 0 0 -43.73 -42.39 0 0 -46.09 -51.14 0 0 46.09 -21.53 0 0 43.73 21.53 0 0 85.45c0,41.71 21.53,54.16 52.48,54.16zm134.37 1.01c32.63,0 56.52,-12.45 73.67,-33.64l-29.27 -25.9c-14.47,13.12 -26.58,18.5 -43.74,18.5 -22.87,0 -39.02,-12.11 -44.07,-35.32l125.48 0c0.34,-5.04 0.67,-9.42 0.67,-13.46 0,-51.14 -27.59,-97.89 -87.8,-97.89 -52.48,0 -89.15,42.39 -89.15,93.86l0 0.67c0,55.17 40.03,93.18 94.2,93.18zm-44.07 -108.32c4.04,-23.21 17.49,-38.35 39.03,-38.35 21.53,0 34.99,15.48 38.01,38.35l-77.04 0z"/>
   <path class="fil1" d="M1355.87 249.11c36,0 56.18,-13.79 73.67,-32.97l-29.94 -30.28c-12.45,11.78 -24.22,19.18 -41.38,19.18 -27.92,0 -45.75,-21.86 -45.75,-49.79l0 -0.67c0,-26.91 18.17,-49.11 43.73,-49.11 18.5,0 29.27,7.74 41.04,19.85l31.29 -33.64c-17.16,-18.84 -38.01,-30.28 -71.99,-30.28 -55.17,0 -94.53,42.39 -94.53,93.86l0 0.67c0,51.14 39.7,93.18 93.86,93.18z"/>
   <path class="fil0" d="M1729.41 248.18l0 -3.06 -32.18 5.07 -28.64 -61.36 -90.28 0 -27.95 61.36 -49.39 -8.28 122.83 -241.92 105.61 206.66 0 -199.53 47.61 -3.22 0 241.23 -47.61 3.05zm-132.52 -99.71l53.13 0 -26.57 -63.14 -26.57 63.14z"/>
   <g>
    <path class="fil2" d="M116.7 103.79c0.85,1.76 3.47,4.45 5.04,6.4 1.66,2.06 3.26,4.27 4.91,6.48 18.41,24.65 29.48,59.38 22.15,90.72 -1.43,6.1 -3.56,11.94 -6.11,17.22 -1.94,4.02 -1.37,4.35 -5.73,5.66 -2.8,0.84 -6.42,2 -9.26,2.38 8.69,-19.37 14.42,-32.64 11.07,-57.22 -3.99,-29.18 -17.98,-50.11 -35.54,-69.51 -20.24,-22.35 -56.05,-45.23 -85.08,-55.37 -3.94,-1.38 -10.11,-3.89 -14.19,-1.36 -4.16,2.57 -4.58,6.75 -3.38,12.6 10.6,51.95 -8.76,79.53 10.34,126.32 22.06,54.05 85.58,78.48 138.58,55.96 30.42,-12.93 54.86,-40.08 62.15,-78.92 6.54,-34.84 -5.2,-56 2.52,-97.44 0.9,-4.84 3.44,-10.66 1.31,-15.19 -1.94,-4.14 -6.75,-5.25 -12.43,-3.54 -16.88,5.08 -35.39,13.79 -47.87,22.36l-20.51 14.93c-3.31,2.52 -16.8,14.89 -17.97,17.52zm22.84 1.27l6.81 10.26c2.25,3.64 4.21,7.26 6.37,11.35 8.82,16.68 14.35,36.16 15.27,55.54 0.62,13.2 -1.52,20.39 -3.1,32.27 5.35,-2.81 17.12,-18.24 20.31,-24.53 14.69,-28.99 11.94,-47.04 9.92,-77.28 -1.05,-15.8 -0.2,-27.57 1.18,-42.91 -11.9,2.42 -52.47,28.24 -56.77,35.31zm-119.98 -35.38c3.7,35.1 1.83,29.7 -0.35,62.57 -1.35,20.37 2.59,41 11.11,56.72 11.9,21.96 32.18,38.55 57.36,43.87 3.49,0.74 11.58,2.2 15.15,1.87 3.49,-0.32 6.65,-5.6 8.59,-8.47 23.33,-34.59 6.72,-75.58 -13.26,-100.04 -9.94,-12.18 -21.46,-22.51 -35.22,-32.47 -7.03,-5.09 -33.59,-22.52 -43.38,-24.04z"/>
    <path class="fil2" d="M34.01 48.69l15.04 7.11 4.41 -18.27c14.31,1.47 37.96,16.15 48.65,24.62 5.29,4.19 14.42,12.92 18.62,18.07l3.62 4.03 12.43 -10.79c-3.38,-5.57 -10.75,-12.39 -14.81,-16.52 3.82,-4.89 30.81,-18.61 40.08,-19.33l4.54 17.86 15.27 -6.68c-0.27,-4.13 -4.72,-23.01 -6.34,-25.89 -4.3,-7.67 -16.86,-2.73 -24.28,-0.39 -10,3.14 -38.22,16.16 -42.47,22.44l-20.75 -12.39c-7.21,-3.99 -14.7,-7.08 -22.99,-9.88 -7.57,-2.55 -19.9,-7.64 -24.38,-0.04 -2.23,3.78 -6.42,20.9 -6.65,26.06z"/>
    <path class="fil2" d="M77 19.65c0.32,0.26 14.04,7.09 15.2,7.54 3.75,1.47 10.84,-6.17 15.25,-6.78 4.87,-0.67 11.54,7.85 15.73,6.38 1.4,-0.49 14.94,-7.09 15.64,-7.79 -2.17,-1.36 -4.57,-3.4 -6.96,-4.96 -25.18,-16.47 -23.63,-13.44 -40.47,-4.59 -4.99,2.62 -11.24,6.7 -14.39,10.2z"/>
   </g>
  </g>
 </g>
</svg>
